<svg height="54" viewBox="0 0 44 54" width="44" xmlns="http://www.w3.org/2000/svg"><path d="m0 0h44v54h-44z" fill="none"/><path d="m19 13v34a3 3 0 0 1 -3 3h-13a3 3 0 0 1 -3-3v-34a3 3 0 0 1 3-3h13a3 3 0 0 1 3 3zm-12-.5a.2507.2507 0 0 0 .25.25h4.5a.25.25 0 0 0 0-.5h-4.5a.2507.2507 0 0 0 -.25.25zm-1.875 0a.375.375 0 1 0 .375-.375.3751.3751 0 0 0 -.375.375zm6.125 35a1.75 1.75 0 1 0 -1.75 1.75 1.75 1.75 0 0 0 1.75-1.75zm6.75-32.5h-17v30h17zm-8.5 31.37a1.13 1.13 0 1 0 1.13 1.13 1.1313 1.1313 0 0 0 -1.13-1.13zm34.5-35.5285v34.7672a8.2706 8.2706 0 0 1 -.1346 1.8155 3.2357 3.2357 0 0 1 -.8358 1.5824 3.1264 3.1264 0 0 1 -1.5484.8552 7.747 7.747 0 0 1 -1.7774.1382c-4.2085 0-9.3459.0008-13.5517 0a6.8074 6.8074 0 0 1 -1.7385-.1637 3.0968 3.0968 0 0 1 -1.4931-.8819 3.252 3.252 0 0 1 -.794-1.5657 8.5247 8.5247 0 0 1 -.1265-1.78v-34.7672c0-.15 0-.3022 0-.45a7.89 7.89 0 0 1 .1565-1.9083 3.1773 3.1773 0 0 1 .9489-1.6189 3.0445 3.0445 0 0 1 .83-.5342 3.5957 3.5957 0 0 1 .855-.2461 6.7541 6.7541 0 0 1 .9366-.0785c.19-.0048.4129-.0056.6242-.0056h.3147 12.8487q.1681 0 .3332 0a6.8172 6.8172 0 0 1 1.7386.1638 3.0955 3.0955 0 0 1 1.493.882 3.2505 3.2505 0 0 1 .794 1.5655 8.5271 8.5271 0 0 1 .1266 1.7804zm-12.6589-4.31a.13.13 0 0 0 .13.13h3.0586a.13.13 0 0 0 .13-.13v-.02a.13.13 0 0 0 -.13-.13h-3.059a.13.13 0 0 0 -.13.13zm-1.5717 1.2232a.4235.4235 0 0 0 .3937.2044.4111.4111 0 0 0 0-.8187.423.423 0 0 0 -.3936.2038.43.43 0 0 0 -.0001.4105zm13.2306 2.6386a7.6905 7.6905 0 0 0 -.104-1.57 2.25 2.25 0 0 0 -.5477-1.0946 2.1113 2.1113 0 0 0 -1.0194-.5979 5.9081 5.9081 0 0 0 -1.4853-.13h-.3289-2.1314a.8553.8553 0 0 0 -.1648.0085.2508.2508 0 0 0 -.2165.2118.8792.8792 0 0 0 -.0129.1647 2.4442 2.4442 0 0 1 -.0285.3706 1.0684 1.0684 0 0 1 -.1232.3446 1.11 1.11 0 0 1 -.4058.4083 1.1278 1.1278 0 0 1 -.427.1394 3.4188 3.4188 0 0 1 -.456.0145h-5.0972a3.4162 3.4162 0 0 1 -.4559-.0145 1.1277 1.1277 0 0 1 -.4271-.1394 1.11 1.11 0 0 1 -.4058-.4093 1.0684 1.0684 0 0 1 -.1232-.3446 2.444 2.444 0 0 1 -.0284-.3706.8968.8968 0 0 0 -.013-.1647.2508.2508 0 0 0 -.2165-.2118.8557.8557 0 0 0 -.1648-.0083h-1.9507-.1491-.1656c-.2028 0-.4163.0007-.5991.0053a5.6828 5.6828 0 0 0 -.7978.0652 2.6053 2.6053 0 0 0 -.62.1765 2.0521 2.0521 0 0 0 -.5587.3592 2.1908 2.1908 0 0 0 -.6494 1.12 6.9914 6.9914 0 0 0 -.1263 1.6499v.4654 34.7672a7.685 7.685 0 0 0 .1039 1.5683 2.2513 2.2513 0 0 0 .5479 1.0947 2.11 2.11 0 0 0 1.0194.5977 5.8936 5.8936 0 0 0 1.4852.13c.1272 0 .3832.0009.5083 0h13.0391a6.94 6.94 0 0 0 1.547-.1112 2.1208 2.1208 0 0 0 1.0638-.5813 2.2282 2.2282 0 0 0 .5753-1.1037 7.3689 7.3689 0 0 0 .1101-1.5747v-34.787-.075c0-.0679 0-.3013 0-.3732z" fill="#1d1d1f"/></svg>